<?xml version="1.0" standalone="no"?>
<!DOCTYPE svg PUBLIC "-//W3C//DTD SVG 20010904//EN"
 "http://www.w3.org/TR/2001/REC-SVG-20010904/DTD/svg10.dtd">
<svg version="1.0" xmlns="http://www.w3.org/2000/svg"
 width="30pt" height="30pt" viewBox="0 0 607.000000 731.000000"
 preserveAspectRatio="xMidYMid meet">
<metadata>
Created by potrace 1.16, written by Peter Selinger 2001-2019
</metadata>
<g transform="translate(0.000000,731.000000) scale(0.100000,-0.100000)"
fill="#000000" stroke="none">
<path d="M2886 7151 c-3 -4 -42 -11 -86 -13 -44 -3 -86 -10 -92 -16 -7 -7 -31
-12 -55 -12 -32 0 -43 -4 -43 -15 0 -11 -11 -15 -40 -15 -22 0 -40 -4 -40 -10
0 -5 -11 -10 -24 -10 -14 0 -31 -7 -40 -15 -8 -8 -24 -15 -35 -15 -12 0 -21
-4 -21 -9 0 -5 -11 -12 -25 -15 -14 -4 -25 -11 -25 -16 0 -6 -7 -10 -15 -10
-8 0 -15 -4 -15 -9 0 -5 -11 -12 -25 -15 -14 -4 -25 -11 -25 -16 0 -6 -7 -10
-15 -10 -8 0 -15 -6 -15 -13 0 -6 -15 -18 -32 -26 -42 -18 -198 -178 -198
-203 0 -10 -5 -18 -11 -18 -14 0 -39 -25 -39 -39 0 -6 -4 -11 -10 -11 -5 0
-12 -11 -16 -25 -3 -14 -10 -25 -15 -25 -5 0 -9 -9 -9 -20 0 -11 -7 -23 -15
-26 -8 -4 -15 -10 -15 -15 0 -5 -11 -27 -25 -49 -14 -22 -25 -48 -25 -59 0
-11 -7 -26 -15 -35 -8 -8 -15 -24 -15 -35 0 -12 -4 -21 -10 -21 -5 0 -10 -16
-10 -35 0 -22 -6 -38 -15 -41 -9 -4 -15 -19 -15 -40 0 -19 -4 -34 -9 -34 -4 0
-11 -24 -14 -52 -4 -29 -11 -54 -17 -56 -5 -2 -10 -32 -10 -67 0 -42 -4 -65
-12 -67 -10 -4 -14 -73 -16 -291 l-3 -287 -547 -2 -547 -3 -3 -49 c-2 -27 -10
-59 -18 -70 -9 -14 -14 -48 -14 -108 0 -48 -4 -90 -10 -93 -6 -3 -10 -51 -10
-110 0 -82 -3 -104 -15 -109 -12 -4 -15 -26 -15 -106 0 -60 -4 -100 -10 -100
-6 0 -10 -42 -10 -105 0 -87 -3 -105 -15 -105 -12 0 -15 -18 -15 -99 0 -68 -4
-101 -12 -103 -8 -3 -13 -39 -16 -104 -2 -54 -8 -103 -13 -108 -5 -6 -9 -52
-9 -104 0 -70 -4 -97 -15 -108 -11 -12 -15 -39 -15 -109 0 -52 -4 -97 -10
-100 -6 -3 -10 -52 -10 -111 0 -86 -3 -104 -15 -104 -12 0 -15 -18 -15 -105 0
-63 -4 -105 -10 -105 -6 0 -10 -40 -10 -99 0 -79 -3 -100 -15 -105 -12 -4 -15
-26 -15 -105 0 -69 -4 -101 -12 -103 -8 -3 -14 -39 -16 -106 -2 -56 -8 -102
-13 -102 -5 0 -9 -44 -9 -98 0 -65 -4 -102 -12 -110 -13 -13 -23 -109 -34
-317 -4 -72 -9 -102 -20 -108 -11 -6 -14 -32 -14 -107 0 -60 -4 -100 -10 -100
-6 0 -10 -42 -10 -105 0 -87 -3 -105 -15 -105 -12 0 -15 -17 -15 -94 0 -64 -5
-103 -15 -122 -10 -19 -15 -58 -15 -111 0 -45 -4 -85 -10 -88 -12 -8 -14 -215
-1 -215 5 0 11 -23 13 -52 3 -29 11 -54 17 -56 6 -2 11 -15 11 -28 0 -14 7
-27 15 -30 8 -4 15 -15 15 -25 0 -10 5 -19 10 -19 6 0 10 -11 10 -25 0 -16 6
-25 15 -25 8 0 15 -5 15 -10 0 -6 5 -16 10 -23 65 -77 85 -97 101 -97 11 0 19
-5 19 -11 0 -17 27 -39 49 -39 12 0 21 -6 21 -15 0 -8 8 -15 19 -15 10 0 24
-7 31 -15 7 -8 23 -15 36 -15 13 0 24 -4 24 -10 0 -5 17 -10 39 -10 22 0 44
-6 51 -15 11 -13 298 -15 2475 -15 2180 0 2464 2 2469 15 4 10 20 15 51 15 25
0 45 5 45 10 0 6 11 10 25 10 14 0 28 7 31 15 4 8 17 15 30 15 15 0 24 6 24
15 0 9 9 15 21 15 11 0 33 12 49 28 16 15 47 42 69 61 23 19 41 41 41 48 0 7
5 13 10 13 6 0 10 7 10 15 0 8 7 15 15 15 9 0 15 9 15 24 0 13 7 26 15 30 8 3
15 15 15 26 0 11 5 20 10 20 6 0 10 16 10 36 0 19 7 42 16 51 13 13 15 43 12
191 -2 129 -6 176 -15 180 -9 2 -13 32 -13 103 0 54 -4 99 -9 99 -5 0 -11 46
-13 102 -2 70 -7 103 -15 106 -9 2 -13 32 -13 103 0 79 -3 101 -15 105 -12 5
-15 26 -15 104 0 55 -4 102 -10 105 -6 3 -10 50 -10 104 0 75 -4 101 -15 111
-11 10 -15 36 -15 111 0 54 -4 101 -10 104 -5 3 -10 46 -10 95 0 65 -4 92 -15
104 -11 11 -15 38 -15 110 0 52 -4 98 -10 101 -5 3 -10 43 -10 88 0 53 -5 92
-15 111 -10 19 -15 58 -15 122 0 77 -3 94 -15 94 -12 0 -15 18 -15 104 0 59
-4 108 -10 111 -6 3 -10 48 -10 100 0 70 -4 97 -15 109 -11 11 -15 39 -15 115
0 61 -4 101 -10 101 -6 0 -10 38 -10 94 0 71 -4 98 -15 110 -11 11 -15 39 -15
110 0 53 -4 96 -9 96 -5 0 -11 46 -13 102 -2 70 -7 103 -15 106 -9 2 -13 32
-13 103 0 79 -3 101 -15 105 -12 5 -15 27 -15 109 0 59 -4 107 -10 110 -6 3
-10 48 -10 100 0 70 -4 97 -15 109 -11 11 -15 38 -15 106 0 67 -4 97 -16 115
l-16 25 -574 0 -574 0 0 279 c0 235 -2 282 -15 295 -10 10 -15 35 -15 75 0 34
-4 61 -10 61 -5 0 -10 23 -10 50 0 36 -4 52 -15 56 -9 4 -15 19 -15 40 0 19
-4 34 -10 34 -5 0 -10 16 -10 35 0 22 -6 38 -15 41 -8 4 -15 17 -15 30 0 13
-4 24 -10 24 -5 0 -10 9 -10 20 0 21 -39 103 -52 108 -4 2 -8 10 -8 18 0 8 -4
14 -10 14 -5 0 -10 11 -10 25 0 16 -6 25 -15 25 -8 0 -15 9 -15 19 0 11 -16
36 -35 55 -19 20 -35 41 -35 46 0 6 -18 28 -40 50 -22 22 -40 45 -40 50 0 6
-7 10 -15 10 -8 0 -15 5 -15 11 0 14 -25 39 -39 39 -6 0 -11 4 -11 10 0 5 -17
18 -37 29 -21 11 -45 29 -53 40 -8 12 -20 21 -26 21 -7 0 -19 6 -26 13 -20 18
-50 37 -70 43 -10 4 -18 10 -18 15 0 5 -11 9 -24 9 -13 0 -29 7 -36 15 -7 8
-25 15 -41 15 -16 0 -29 5 -29 10 0 6 -18 10 -40 10 -29 0 -40 4 -40 15 0 11
-11 15 -39 15 -21 0 -52 7 -67 15 -17 9 -56 15 -96 15 -37 0 -70 5 -73 10 -8
12 -232 14 -239 1z m218 -516 c4 -11 21 -15 66 -15 33 0 60 -4 60 -10 0 -5 15
-10 34 -10 21 0 36 -6 40 -15 3 -8 14 -15 24 -15 11 0 25 -7 32 -15 7 -8 19
-15 26 -15 8 0 30 -16 50 -35 19 -19 44 -35 55 -35 10 0 19 -5 19 -11 0 -13
25 -39 38 -39 5 0 12 -8 16 -17 8 -26 28 -55 54 -80 12 -12 22 -27 22 -34 0
-7 11 -27 25 -45 14 -18 25 -39 25 -48 0 -8 4 -17 9 -21 5 -3 12 -19 16 -35 4
-17 11 -30 16 -30 5 0 9 -11 9 -24 0 -14 7 -31 15 -40 8 -8 15 -31 15 -50 0
-20 5 -36 10 -36 6 0 10 -24 10 -54 0 -34 5 -58 14 -66 11 -8 16 -45 20 -138
3 -70 8 -180 12 -244 l5 -118 -835 0 -836 0 0 109 c0 77 4 117 15 137 11 21
15 62 15 147 0 71 4 117 10 117 6 0 10 24 10 54 0 39 4 55 15 60 10 3 15 19
15 45 0 22 5 43 10 46 6 3 10 17 10 30 0 12 7 25 15 29 9 3 15 18 15 35 0 16
6 31 15 35 8 3 15 13 15 22 0 10 11 32 25 50 14 18 25 37 25 43 0 6 5 11 10
11 6 0 10 7 10 15 0 8 5 15 10 15 6 0 18 18 27 40 10 22 22 40 27 40 5 0 19
11 32 25 13 14 27 25 32 25 5 0 21 11 36 25 15 14 31 25 37 25 5 0 9 4 9 9 0
5 11 12 25 15 14 4 25 11 25 16 0 6 11 10 25 10 16 0 25 6 25 15 0 11 11 15
40 15 22 0 40 5 40 10 0 6 26 10 59 10 43 0 60 4 65 15 4 12 25 15 95 15 70 0
90 -3 95 -15z"/>
</g>
</svg>
